# xmcd CD database file
#
# Track frame offsets:
#	150
#	13798
#	32364
#	47068
#	67629
#	82622
#	88497
#	103760
#	119488
#	130215
#	153377
#	179648
#	208250
#
# Disc length: 2893 seconds
#
# Revision: 0
# Processed by: cddbd v1.4PL0 Copyright (c) Steve Scherf et al.
# Submitted via: CDex 1.50beta10
#
DISCID=aa0b4b0d
DTITLE=Kung-Fu/Motocross - Main d'oeuvre
DYEAR=1996
DGENRE=Jazz
TTITLE0=Chewbacca
TTITLE1=Beaucoup de chloroforme
TTITLE2=Babette à Babylone
TTITLE3=Habitacle
TTITLE4=Moutarde
TTITLE5=Le singe est pris
TTITLE6=Algicide
TTITLE7=Autoroute
TTITLE8=Abdulah the Butcher
TTITLE9=Le "Tokyo Butterfly"
TTITLE10=Paris By Night
TTITLE11=Pac-Man
TTITLE12=La prise du singe
EXTD=YEAR: 1996
EXTT0=
EXTT1=
EXTT2=
EXTT3=
EXTT4=
EXTT5=
EXTT6=
EXTT7=
EXTT8=
EXTT9=
EXTT10=
EXTT11=
EXTT12=
PLAYORDER=
